[Header]			# Header keywords are followed by a single value
FileType htr		# single word string
DataType HTRS		# Hierarchical translations followed by rotations and Scale
FileVersion 1		# integer
NumSegments 20		# integer
NumFrames 7		# integer
DataFrameRate 60	# integer
EulerRotationOrder ZYX	# one word string
CalibrationUnits mm	# one word string
RotationUnits Degrees	# one word string
GlobalAxisofGravity Y	# character, X or Y or Z
BoneLengthAxis Y
ScaleFactor 1.000000
[SegmentNames&Hierarchy]
#CHILD	PARENT
LowerTorso	GLOBAL
UpperTorso	LowerTorso
LCollarBone	UpperTorso
RCollarBone	UpperTorso
LUpArm	LCollarBone
RUpArm	RCollarBone
LLowArm	LUpArm
RLowArm	RUpArm
LHand	LLowArm
RHand	RLowArm
LPelvis	LowerTorso
RPelvis	LowerTorso
LThigh	LPelvis
RThigh	RPelvis
LLowLeg	LThigh
RLowLeg	RThigh
LFoot	LLowLeg
RFoot	RLowLeg
Neck	UpperTorso
Head	Neck
[BasePosition]
#SegmentName Tx, Ty, Tz, Rx, Ry, Rz, BoneLength
LowerTorso	0.000000	0.000000	0.000000	0.000000	0.000000	0.000000	247.497849
UpperTorso	0.000000	247.497849	0.000000	-3.483188	-0.016176	-0.898562	303.935425
LCollarBone	0.000000	303.935425	0.000000	-2.778975	2.380151	-103.909637	160.814774
RCollarBone	0.000000	303.935425	0.000000	1.923138	-2.431442	97.423370	173.085861
LUpArm	0.000000	160.814774	0.000000	9.905276	-0.146364	3.830753	266.228302
RUpArm	0.000000	173.085861	0.000000	3.559436	0.163580	4.186032	250.544907
LLowArm	0.000000	266.228302	0.000000	0.604391	2.460426	18.478745	239.401855
RLowArm	0.000000	250.544907	0.000000	-4.677841	-1.676118	-16.763147	247.676224
LHand	0.000000	239.401855	0.000000	-2.922581	-1.504997	-10.879651	178.693573
RHand	0.000000	247.676224	0.000000	8.087741	0.221451	14.771751	171.097885
LPelvis	0.000000	0.000000	0.000000	25.628080	-1.004481	-103.107483	127.213554
RPelvis	0.000000	0.000000	0.000000	7.212610	1.026056	95.806335	154.731140
LThigh	0.000000	127.213554	0.000000	-8.629928	-24.934669	-78.343170	392.414856
RThigh	0.000000	154.731140	0.000000	-0.087953	7.045837	82.361420	403.151337
LLowLeg	0.000000	392.414856	0.000000	-11.135172	-0.396179	6.207254	411.539612
RLowLeg	0.000000	403.151337	0.000000	-15.879393	-0.038285	-2.567663	396.965240
LFoot	0.000000	411.539612	0.000000	86.993790	-9.419292	-7.421347	182.020935
RFoot	0.000000	396.965240	0.000000	85.685738	19.489246	8.810133	181.714371
Neck	0.000000	303.935425	0.000000	26.917892	0.010495	-0.245093	141.112030
Head	0.000000	141.112030	0.000000	-34.290924	-1.751020	-3.852423	164.098740
#Beginning of Data. Separated by tabs.
[LowerTorso]
#Fr	Tx	Ty	Tz	Rx	Ry	Rz	SF
812	1406.574585	746.537537	729.123962	-173.663727	22.539804	-170.464813	1.000000
813	1416.021484	752.702515	715.246033	-174.230026	21.811775	-171.218033	1.000000
814	1424.825439	759.818359	700.884216	-174.646622	21.107826	-171.941803	1.000000
815	1433.177856	767.663818	685.954285	-174.894073	20.434689	-172.593765	1.000000
816	1441.243530	776.099060	670.440613	-174.998337	19.747969	-173.160568	1.000000
817	1449.070679	784.941772	654.396545	-174.976181	19.014196	-173.634155	1.000000
818	1456.584351	793.955139	637.864807	-174.856735	18.236551	-174.013260	1.000000
[UpperTorso]
#Fr	Tx	Ty	Tz	Rx	Ry	Rz	SF
812	0.000000	0.000000	0.000000	20.933969	-6.879743	4.222729	1.000000
813	0.000000	0.000000	0.000000	20.947939	-5.349403	3.403673	1.000000
814	0.000000	0.000000	0.000000	20.811762	-3.810864	2.645827	1.000000
815	0.000000	0.000000	0.000000	20.528542	-2.306103	1.966561	1.000000
816	0.000000	0.000000	0.000000	20.107580	-0.884227	1.355084	1.000000
817	0.000000	0.000000	0.000000	19.557014	0.434508	0.817822	1.000000
818	0.000000	0.000000	0.000000	18.906168	1.639155	0.360951	1.000000
[LCollarBone]
#Fr	Tx	Ty	Tz	Rx	Ry	Rz	SF
812	0.000000	0.000000	0.000000	1.513734	-0.038701	6.263512	1.000000
813	0.000000	0.000000	0.000000	1.015582	-0.105922	6.303846	1.000000
814	0.000000	0.000000	0.000000	0.525782	-0.171628	6.342190	1.000000
815	0.000000	0.000000	0.000000	0.042158	-0.235319	6.363842	1.000000
816	0.000000	0.000000	0.000000	-0.441515	-0.298042	6.365242	1.000000
817	0.000000	0.000000	0.000000	-0.936306	-0.361532	6.332006	1.000000
818	0.000000	0.000000	0.000000	-1.449443	-0.427550	6.257730	1.000000
[RCollarBone]
#Fr	Tx	Ty	Tz	Rx	Ry	Rz	SF
812	0.000000	0.000000	0.000000	10.027789	-1.496202	1.090720	1.000000
813	0.000000	0.000000	0.000000	10.358072	-1.605450	1.492995	1.000000
814	0.000000	0.000000	0.000000	10.595168	-1.681022	1.731780	1.000000
815	0.000000	0.000000	0.000000	10.798849	-1.728335	1.811637	1.000000
816	0.000000	0.000000	0.000000	10.975929	-1.746124	1.728263	1.000000
817	0.000000	0.000000	0.000000	11.141947	-1.737861	1.501495	1.000000
818	0.000000	0.000000	0.000000	11.238523	-1.692799	1.124151	1.000000
[LUpArm]
#Fr	Tx	Ty	Tz	Rx	Ry	Rz	SF
812	0.000000	0.000000	0.000000	59.999062	-21.853605	7.044520	1.000000
813	0.000000	0.000000	0.000000	59.732410	-22.527859	7.688338	1.000000
814	0.000000	0.000000	0.000000	59.446060	-23.389898	8.190413	1.000000
815	0.000000	0.000000	0.000000	59.131626	-24.350452	8.655203	1.000000
816	0.000000	0.000000	0.000000	58.818859	-25.299618	9.166678	1.000000
817	0.000000	0.000000	0.000000	58.546982	-26.115175	9.852866	1.000000
818	0.000000	0.000000	0.000000	58.353470	-26.732264	10.695425	1.000000
[RUpArm]
#Fr	Tx	Ty	Tz	Rx	Ry	Rz	SF
812	0.000000	0.000000	0.000000	-20.231865	-18.071594	21.033642	1.000000
813	0.000000	0.000000	0.000000	-19.519213	-20.564873	19.493631	1.000000
814	0.000000	0.000000	0.000000	-18.805803	-21.794668	17.417452	1.000000
815	0.000000	0.000000	0.000000	-18.174545	-21.797768	15.010644	1.000000
816	0.000000	0.000000	0.000000	-17.673239	-20.918110	12.497744	1.000000
817	0.000000	0.000000	0.000000	-17.374954	-19.585272	10.065780	1.000000
818	0.000000	0.000000	0.000000	-17.273676	-18.119955	7.814489	1.000000
[LLowArm]
#Fr	Tx	Ty	Tz	Rx	Ry	Rz	SF
812	0.000000	0.000000	0.000000	111.795586	-9.715960	-10.774571	1.000000
813	0.000000	0.000000	0.000000	111.606049	-9.722743	-10.746499	1.000000
814	0.000000	0.000000	0.000000	111.438171	-9.728676	-10.721615	1.000000
815	0.000000	0.000000	0.000000	111.268654	-9.734592	-10.696473	1.000000
816	0.000000	0.000000	0.000000	111.033073	-9.742692	-10.661504	1.000000
817	0.000000	0.000000	0.000000	110.672661	-9.754808	-10.607943	1.000000
818	0.000000	0.000000	0.000000	110.202148	-9.770128	-10.537907	1.000000
[RLowArm]
#Fr	Tx	Ty	Tz	Rx	Ry	Rz	SF
812	0.000000	0.000000	0.000000	12.636559	1.108683	0.105777	1.000000
813	0.000000	0.000000	0.000000	14.636562	1.280882	0.144807	1.000000
814	0.000000	0.000000	0.000000	16.922920	1.475900	0.196754	1.000000
815	0.000000	0.000000	0.000000	19.578201	1.699530	0.266785	1.000000
816	0.000000	0.000000	0.000000	22.523123	1.943402	0.356471	1.000000
817	0.000000	0.000000	0.000000	25.690432	2.200097	0.466766	1.000000
818	0.000000	0.000000	0.000000	28.944456	2.456975	0.594660	1.000000
[LHand]
#Fr	Tx	Ty	Tz	Rx	Ry	Rz	SF
812	0.000000	0.000000	0.000000	36.203938	16.965593	21.826441	1.000000
813	0.000000	0.000000	0.000000	36.221043	17.291046	22.534147	1.000000
814	0.000000	0.000000	0.000000	36.076252	17.537088	23.033306	1.000000
815	0.000000	0.000000	0.000000	35.729031	17.604040	23.272129	1.000000
816	0.000000	0.000000	0.000000	35.269543	17.459145	23.376772	1.000000
817	0.000000	0.000000	0.000000	34.775196	17.146835	23.470331	1.000000
818	0.000000	0.000000	0.000000	34.308727	16.815561	23.607508	1.000000
[RHand]
#Fr	Tx	Ty	Tz	Rx	Ry	Rz	SF
812	0.000000	0.000000	0.000000	19.051283	-3.276005	1.211885	1.000000
813	0.000000	0.000000	0.000000	20.783148	-3.893587	-0.319959	1.000000
814	0.000000	0.000000	0.000000	20.383766	-3.415854	-1.807073	1.000000
815	0.000000	0.000000	0.000000	17.866079	-2.507863	-3.158247	1.000000
816	0.000000	0.000000	0.000000	13.970821	-1.693856	-4.439031	1.000000
817	0.000000	0.000000	0.000000	9.676425	-1.289248	-5.704340	1.000000
818	0.000000	0.000000	0.000000	5.844131	-1.436297	-6.941908	1.000000
[LPelvis]
#Fr	Tx	Ty	Tz	Rx	Ry	Rz	SF
812	0.000000	0.000000	0.000000	0.000000	0.000000	0.000000	1.000000
813	0.000000	0.000000	0.000000	0.000000	0.000000	0.000000	1.000000
814	0.000000	0.000000	0.000000	0.000000	0.000000	0.000000	1.000000
815	0.000000	0.000000	0.000000	0.000000	0.000000	0.000000	1.000000
816	0.000000	0.000000	0.000000	0.000000	0.000000	0.000000	1.000000
817	0.000000	0.000000	0.000000	0.000000	0.000000	0.000000	1.000000
818	0.000000	0.000000	0.000000	0.000000	0.000000	0.000000	1.000000
[RPelvis]
#Fr	Tx	Ty	Tz	Rx	Ry	Rz	SF
812	0.000000	0.000000	0.000000	0.000000	0.000000	0.000000	1.000000
813	0.000000	0.000000	0.000000	0.000000	0.000000	0.000000	1.000000
814	0.000000	0.000000	0.000000	0.000000	0.000000	0.000000	1.000000
815	0.000000	0.000000	0.000000	0.000000	0.000000	0.000000	1.000000
816	0.000000	0.000000	0.000000	0.000000	0.000000	0.000000	1.000000
817	0.000000	0.000000	0.000000	0.000000	0.000000	0.000000	1.000000
818	0.000000	0.000000	0.000000	0.000000	0.000000	0.000000	1.000000
[LThigh]
#Fr	Tx	Ty	Tz	Rx	Ry	Rz	SF
812	0.000000	0.000000	0.000000	45.991024	6.105209	-6.487161	1.000000
813	0.000000	0.000000	0.000000	48.592094	6.187877	-7.559182	1.000000
814	0.000000	0.000000	0.000000	50.774452	6.156869	-8.452583	1.000000
815	0.000000	0.000000	0.000000	52.535751	5.932950	-9.204897	1.000000
816	0.000000	0.000000	0.000000	53.792202	5.489529	-9.866488	1.000000
817	0.000000	0.000000	0.000000	54.492352	4.853259	-10.473495	1.000000
818	0.000000	0.000000	0.000000	54.611416	4.081491	-11.076380	1.000000
[RThigh]
#Fr	Tx	Ty	Tz	Rx	Ry	Rz	SF
812	0.000000	0.000000	0.000000	26.819881	6.754068	12.077040	1.000000
813	0.000000	0.000000	0.000000	24.516376	7.791170	11.441215	1.000000
814	0.000000	0.000000	0.000000	22.176136	8.562358	10.748946	1.000000
815	0.000000	0.000000	0.000000	19.841824	9.092800	10.061261	1.000000
816	0.000000	0.000000	0.000000	17.532969	9.464307	9.400576	1.000000
817	0.000000	0.000000	0.000000	15.289375	9.735883	8.777387	1.000000
818	0.000000	0.000000	0.000000	13.126819	9.961715	8.191920	1.000000
[LLowLeg]
#Fr	Tx	Ty	Tz	Rx	Ry	Rz	SF
812	0.000000	0.000000	0.000000	-91.294846	5.843733	-3.495828	1.000000
813	0.000000	0.000000	0.000000	-87.991928	5.772522	-3.231089	1.000000
814	0.000000	0.000000	0.000000	-83.744987	5.658837	-2.897468	1.000000
815	0.000000	0.000000	0.000000	-78.583023	5.487976	-2.504691	1.000000
816	0.000000	0.000000	0.000000	-72.526070	5.243494	-2.065648	1.000000
817	0.000000	0.000000	0.000000	-65.636971	4.910922	-1.600858	1.000000
818	0.000000	0.000000	0.000000	-57.958744	4.477457	-1.134054	1.000000
[RLowLeg]
#Fr	Tx	Ty	Tz	Rx	Ry	Rz	SF
812	0.000000	0.000000	0.000000	-45.605724	-2.500478	0.341560	1.000000
813	0.000000	0.000000	0.000000	-44.252563	-2.433883	0.303225	1.000000
814	0.000000	0.000000	0.000000	-42.592468	-2.350968	0.258360	1.000000
815	0.000000	0.000000	0.000000	-40.676506	-2.253698	0.209593	1.000000
816	0.000000	0.000000	0.000000	-38.599174	-2.146447	0.160426	1.000000
817	0.000000	0.000000	0.000000	-36.480518	-2.035289	0.114320	1.000000
818	0.000000	0.000000	0.000000	-34.391132	-1.924061	0.072908	1.000000
[LFoot]
#Fr	Tx	Ty	Tz	Rx	Ry	Rz	SF
812	0.000000	0.000000	0.000000	-3.951437	1.636438	1.637809	1.000000
813	0.000000	0.000000	0.000000	-2.601266	1.452473	1.768566	1.000000
814	0.000000	0.000000	0.000000	-1.431429	1.459072	2.184546	1.000000
815	0.000000	0.000000	0.000000	-0.506552	1.626999	2.841783	1.000000
816	0.000000	0.000000	0.000000	0.265641	1.727202	3.355241	1.000000
817	0.000000	0.000000	0.000000	1.005292	1.545083	3.331018	1.000000
818	0.000000	0.000000	0.000000	1.647658	1.130391	2.786745	1.000000
[RFoot]
#Fr	Tx	Ty	Tz	Rx	Ry	Rz	SF
812	0.000000	0.000000	0.000000	15.391169	4.948175	0.845108	1.000000
813	0.000000	0.000000	0.000000	15.565243	5.044097	1.203789	1.000000
814	0.000000	0.000000	0.000000	15.325721	5.008895	1.531715	1.000000
815	0.000000	0.000000	0.000000	14.607941	4.823888	1.766564	1.000000
816	0.000000	0.000000	0.000000	13.369949	4.491900	1.961735	1.000000
817	0.000000	0.000000	0.000000	11.659677	4.062755	2.250040	1.000000
818	0.000000	0.000000	0.000000	9.590126	3.611498	2.708412	1.000000
[Neck]
#Fr	Tx	Ty	Tz	Rx	Ry	Rz	SF
812	0.000000	0.000000	0.000000	-3.832082	8.037521	-9.042813	1.000000
813	0.000000	0.000000	0.000000	-3.536165	7.887334	-8.833227	1.000000
814	0.000000	0.000000	0.000000	-3.214464	7.815408	-8.662667	1.000000
815	0.000000	0.000000	0.000000	-2.864701	7.856122	-8.553935	1.000000
816	0.000000	0.000000	0.000000	-2.512408	8.020594	-8.521564	1.000000
817	0.000000	0.000000	0.000000	-2.185068	8.249163	-8.559699	1.000000
818	0.000000	0.000000	0.000000	-1.888055	8.484015	-8.634425	1.000000
[Head]
#Fr	Tx	Ty	Tz	Rx	Ry	Rz	SF
812	0.000000	0.000000	0.000000	-10.480971	22.248177	-7.838201	1.000000
813	0.000000	0.000000	0.000000	-9.758459	21.871769	-7.481466	1.000000
814	0.000000	0.000000	0.000000	-8.975325	21.677477	-7.095581	1.000000
815	0.000000	0.000000	0.000000	-8.168061	21.753160	-6.686162	1.000000
816	0.000000	0.000000	0.000000	-7.378447	22.094481	-6.263443	1.000000
817	0.000000	0.000000	0.000000	-6.659177	22.609509	-5.874851	1.000000
818	0.000000	0.000000	0.000000	-6.052558	23.183695	-5.580903	1.000000
[EndOfFile]
